<?xml version="1.0" encoding="utf-8"?><svg version="1.1" id="Layer_1" xmlns="http://www.w3.org/2000/svg" xmlns:xlink="http://www.w3.org/1999/xlink" x="0px" y="0px" viewBox="0 0 122.88 95.07" style="enable-background:new 0 0 122.88 95.07" xml:space="preserve"><style type="text/css">.st0{fill-rule:evenodd;clip-rule:evenodd;}</style><g><path class="st0" d="M46.06,26.43c21.77,0,55.05,0,76.82,0v15.8l-76.82,0V26.43L46.06,26.43L46.06,26.43z M7.47,48.01l23.24,22.35 V25.66L7.47,48.01L7.47,48.01z M122.88,79.28c-41.01,0-81.87,0-122.87,0L0,95.07c41.01,0,81.87,0,122.88,0V79.28L122.88,79.28z M122.88,52.85c-17.23,0-59.11,0-76.34,0l0,15.8h76.34V52.85L122.88,52.85z M122.88,0C97.46,0,25.44,0,0.02,0l0,15.8 c25.42,0,97.44,0,122.87,0L122.88,0L122.88,0L122.88,0z"/></g></svg>